<svg width="186" height="22" viewBox="0 0 186 22" fill="none" xmlns="http://www.w3.org/2000/svg">
<path d="M16.65 20.9998H10.17L11.97 12.5098H8.28L6.48 20.9998H0L4.05 1.94984H10.56L8.79 10.2298H12.45L14.22 1.94984H20.76L16.65 20.9998Z" fill="#545F75"/>
<path d="M26.3447 14.9698C26.2647 15.4098 26.2047 15.8298 26.1647 16.2298C26.1447 16.6298 26.1347 16.9898 26.1347 17.3098C26.1347 17.4898 26.1447 17.6898 26.1647 17.9098C26.1847 18.1298 26.2247 18.3398 26.2847 18.5398C26.3647 18.7198 26.4647 18.8798 26.5847 19.0198C26.7247 19.1398 26.9147 19.1998 27.1547 19.1998C27.3347 19.1998 27.5347 19.1398 27.7547 19.0198C27.9947 18.8998 28.2247 18.7298 28.4447 18.5098C28.6847 18.2898 28.9047 18.0198 29.1047 17.6998C29.3247 17.3798 29.4947 17.0198 29.6147 16.6198H34.5347L33.7547 19.8298C33.3547 20.0898 32.8947 20.3098 32.3747 20.4898C31.8547 20.6698 31.3047 20.8198 30.7247 20.9398C30.1447 21.0398 29.5547 21.1098 28.9547 21.1498C28.3547 21.2098 27.7847 21.2398 27.2447 21.2398C26.2447 21.2398 25.3147 21.1498 24.4547 20.9698C23.5947 20.7898 22.8447 20.4798 22.2047 20.0398C21.5647 19.5998 21.0547 19.0198 20.6747 18.2998C20.3147 17.5598 20.1347 16.6498 20.1347 15.5698C20.1347 14.5898 20.2847 13.6298 20.5847 12.6898C20.9047 11.7498 21.4247 10.9198 22.1447 10.1998C22.8847 9.45984 23.8647 8.86984 25.0847 8.42984C26.3247 7.98984 27.8647 7.76985 29.7047 7.76985C31.7047 7.76985 33.2047 8.07984 34.2047 8.69984C35.2247 9.31984 35.7347 10.2898 35.7347 11.6098C35.7347 12.1498 35.6547 12.7398 35.4947 13.3798C35.3347 13.9998 35.0947 14.5298 34.7747 14.9698H26.3447ZM30.3347 11.3998C30.3347 10.7798 30.2347 10.3598 30.0347 10.1398C29.8347 9.91984 29.5947 9.80984 29.3147 9.80984C28.9947 9.80984 28.6947 9.91984 28.4147 10.1398C28.1547 10.3398 27.9147 10.6198 27.6947 10.9798C27.4747 11.3198 27.2747 11.7198 27.0947 12.1798C26.9147 12.6198 26.7647 13.0898 26.6447 13.5898H30.0647C30.1047 13.3498 30.1447 13.0998 30.1847 12.8398C30.2247 12.6198 30.2547 12.3798 30.2747 12.1198C30.3147 11.8598 30.3347 11.6198 30.3347 11.3998Z" fill="#545F75"/>
<path d="M42.0309 20.9998H35.9109L40.1709 0.839844H46.3209L42.0309 20.9998Z" fill="#545F75"/>
<path d="M50.82 20.9998H44.7L48.96 0.839844H55.11L50.82 20.9998Z" fill="#545F75"/>
<path d="M63.2391 7.76985C65.6191 7.76985 67.3491 8.18984 68.4291 9.02984C69.5691 9.90984 70.1391 11.3698 70.1391 13.4098C70.1391 14.6698 69.9291 15.8098 69.5091 16.8298C69.0891 17.8298 68.4991 18.6598 67.7391 19.3198C66.2191 20.5998 64.0191 21.2398 61.1391 21.2398C58.6791 21.2398 56.9191 20.7698 55.8591 19.8298C54.7191 18.8498 54.1491 17.3798 54.1491 15.4198C54.1491 14.1198 54.4091 12.9398 54.9291 11.8798C55.4691 10.8198 56.2391 9.93985 57.2391 9.23985C58.6991 8.25985 60.6991 7.76985 63.2391 7.76985ZM61.1991 19.1998C61.6991 19.1998 62.1291 18.9198 62.4891 18.3598C62.8691 17.7998 63.1691 17.1198 63.3891 16.3198C63.6091 15.4998 63.7691 14.6598 63.8691 13.7998C63.9891 12.9198 64.0491 12.1598 64.0491 11.5198C64.0491 10.9598 63.9891 10.5398 63.8691 10.2598C63.7691 9.95985 63.5391 9.80984 63.1791 9.80984C62.6391 9.80984 62.1691 10.0998 61.7691 10.6798C61.3891 11.2598 61.0791 11.9498 60.8391 12.7498C60.5991 13.5498 60.4191 14.3698 60.2991 15.2098C60.1991 16.0498 60.1491 16.7298 60.1491 17.2498C60.1491 18.5498 60.4991 19.1998 61.1991 19.1998Z" fill="#545F75"/>
<path d="M104.549 20.9998H97.8893L100.649 8.03984L93.5393 20.9998H89.4593L88.1093 7.58985L85.2293 20.9998H82.5293L86.5793 1.94984H94.2293L95.1593 12.6898L100.919 1.94984H108.629L104.549 20.9998Z" fill="#545F75"/>
<path d="M114.206 14.9698C114.126 15.4098 114.066 15.8298 114.026 16.2298C114.006 16.6298 113.996 16.9898 113.996 17.3098C113.996 17.4898 114.006 17.6898 114.026 17.9098C114.046 18.1298 114.086 18.3398 114.146 18.5398C114.226 18.7198 114.326 18.8798 114.446 19.0198C114.586 19.1398 114.776 19.1998 115.016 19.1998C115.196 19.1998 115.396 19.1398 115.616 19.0198C115.856 18.8998 116.086 18.7298 116.306 18.5098C116.546 18.2898 116.766 18.0198 116.966 17.6998C117.186 17.3798 117.356 17.0198 117.476 16.6198H122.396L121.616 19.8298C121.216 20.0898 120.756 20.3098 120.236 20.4898C119.716 20.6698 119.166 20.8198 118.586 20.9398C118.006 21.0398 117.416 21.1098 116.816 21.1498C116.216 21.2098 115.646 21.2398 115.106 21.2398C114.106 21.2398 113.176 21.1498 112.316 20.9698C111.456 20.7898 110.706 20.4798 110.066 20.0398C109.426 19.5998 108.916 19.0198 108.536 18.2998C108.176 17.5598 107.996 16.6498 107.996 15.5698C107.996 14.5898 108.146 13.6298 108.446 12.6898C108.766 11.7498 109.286 10.9198 110.006 10.1998C110.746 9.45984 111.726 8.86984 112.946 8.42984C114.186 7.98984 115.726 7.76985 117.566 7.76985C119.566 7.76985 121.066 8.07984 122.066 8.69984C123.086 9.31984 123.596 10.2898 123.596 11.6098C123.596 12.1498 123.516 12.7398 123.356 13.3798C123.196 13.9998 122.956 14.5298 122.636 14.9698H114.206ZM118.196 11.3998C118.196 10.7798 118.096 10.3598 117.896 10.1398C117.696 9.91984 117.456 9.80984 117.176 9.80984C116.856 9.80984 116.556 9.91984 116.276 10.1398C116.016 10.3398 115.776 10.6198 115.556 10.9798C115.336 11.3198 115.136 11.7198 114.956 12.1798C114.776 12.6198 114.626 13.0898 114.506 13.5898H117.926C117.966 13.3498 118.006 13.0998 118.046 12.8398C118.086 12.6198 118.116 12.3798 118.136 12.1198C118.176 11.8598 118.196 11.6198 118.196 11.3998Z" fill="#545F75"/>
<path d="M132.112 10.0198C132.532 9.61984 133.002 9.24985 133.522 8.90985C133.982 8.62985 134.522 8.36984 135.142 8.12984C135.762 7.88984 136.452 7.76985 137.212 7.76985C138.252 7.76985 139.112 8.03984 139.792 8.57984C140.472 9.09984 140.812 9.81985 140.812 10.7398C140.812 10.9998 140.782 11.3198 140.722 11.6998C140.662 12.0598 140.592 12.4398 140.512 12.8398C140.432 13.2398 140.342 13.6498 140.242 14.0698C140.162 14.4698 140.092 14.8298 140.032 15.1498L138.772 20.9998H132.682L134.332 13.1698C134.372 12.9098 134.422 12.6498 134.482 12.3898C134.542 12.1098 134.572 11.8598 134.572 11.6398C134.572 11.3398 134.492 11.0998 134.332 10.9198C134.192 10.7198 133.972 10.6198 133.672 10.6198C133.312 10.6198 132.962 10.7498 132.622 11.0098C132.302 11.2698 132.052 11.4898 131.872 11.6698L129.892 20.9998H123.772L126.502 8.09985H131.392L131.932 10.0198H132.112Z" fill="#545F75"/>
<path d="M142.884 8.09985C143.624 7.93985 144.274 7.75984 144.834 7.55984C145.394 7.35984 145.904 7.10984 146.364 6.80984C146.844 6.50984 147.294 6.13984 147.714 5.69984C148.154 5.25985 148.624 4.71985 149.124 4.07985H152.214L151.344 8.09985H153.684L153.294 10.1098H150.924L149.694 15.9598C149.594 16.4198 149.514 16.8298 149.454 17.1898C149.394 17.5498 149.364 17.8298 149.364 18.0298C149.364 18.4298 149.504 18.6798 149.784 18.7798C150.084 18.8798 150.634 18.9298 151.434 18.9298L150.984 20.9998C150.844 21.0398 150.624 21.0698 150.324 21.0898C150.044 21.1098 149.724 21.1298 149.364 21.1498C149.024 21.1898 148.664 21.2098 148.284 21.2098C147.924 21.2298 147.604 21.2398 147.324 21.2398C146.824 21.2398 146.334 21.1998 145.854 21.1198C145.374 21.0598 144.944 20.9298 144.564 20.7298C144.184 20.5098 143.874 20.1998 143.634 19.7998C143.414 19.3998 143.304 18.8598 143.304 18.1798C143.304 17.9398 143.314 17.6398 143.334 17.2798C143.374 16.9198 143.444 16.5198 143.544 16.0798L144.804 10.1098H142.464L142.884 8.09985Z" fill="#545F75"/>
<path d="M162.438 7.76985C164.818 7.76985 166.548 8.18984 167.628 9.02984C168.768 9.90984 169.338 11.3698 169.338 13.4098C169.338 14.6698 169.128 15.8098 168.708 16.8298C168.288 17.8298 167.698 18.6598 166.938 19.3198C165.418 20.5998 163.218 21.2398 160.338 21.2398C157.878 21.2398 156.118 20.7698 155.058 19.8298C153.918 18.8498 153.348 17.3798 153.348 15.4198C153.348 14.1198 153.608 12.9398 154.128 11.8798C154.668 10.8198 155.438 9.93985 156.438 9.23985C157.898 8.25985 159.898 7.76985 162.438 7.76985ZM160.398 19.1998C160.898 19.1998 161.328 18.9198 161.688 18.3598C162.068 17.7998 162.368 17.1198 162.588 16.3198C162.808 15.4998 162.968 14.6598 163.068 13.7998C163.188 12.9198 163.248 12.1598 163.248 11.5198C163.248 10.9598 163.188 10.5398 163.068 10.2598C162.968 9.95985 162.738 9.80984 162.378 9.80984C161.838 9.80984 161.368 10.0998 160.968 10.6798C160.588 11.2598 160.278 11.9498 160.038 12.7498C159.798 13.5498 159.618 14.3698 159.498 15.2098C159.398 16.0498 159.348 16.7298 159.348 17.2498C159.348 18.5498 159.698 19.1998 160.398 19.1998Z" fill="#545F75"/>
<path d="M172.674 8.09985H177.564L178.014 10.3498H178.224C178.684 9.62984 179.274 9.01985 179.994 8.51985C180.714 8.01985 181.664 7.76985 182.844 7.76985C182.924 7.76985 183.044 7.77984 183.204 7.79984C183.384 7.79984 183.574 7.82984 183.774 7.88984C183.994 7.92984 184.214 7.99985 184.434 8.09985C184.674 8.17985 184.904 8.29984 185.124 8.45984L183.804 14.6398H180.534C180.494 13.3998 180.384 12.5398 180.204 12.0598C180.024 11.5598 179.734 11.3098 179.334 11.3098C179.134 11.3098 178.914 11.3598 178.674 11.4598C178.454 11.5398 178.224 11.7298 177.984 12.0298L176.064 20.9998H169.944L172.674 8.09985Z" fill="#545F75"/>
</svg>
